<?xml version="1.0" encoding="UTF-8" standalone="no"?>
<svg
   width="32mm"
   height="32mm"
   viewBox="0 0 32 32"
   version="1.1"
   id="svg1"
   xmlns="http://www.w3.org/2000/svg"
   xmlns:svg="http://www.w3.org/2000/svg">
    <path
       id="rect2"
       style="fill:#000000;stroke:none;stroke-width:1.05833;stroke-miterlimit:4.5;paint-order:stroke fill markers"
       d="M 6.0001506 1.9998779 C 3.7841506 1.9998779 1.9998779 3.7841506 1.9998779 6.0001506 L 1.9998779 25.999963 C 1.9998779 28.215963 3.7841506 30.000236 6.0001506 30.000236 L 25.999963 30.000236 C 28.215963 30.000236 30.000236 28.215963 30.000236 25.999963 L 30.000236 6.0001506 C 30.000236 3.7841506 28.215963 1.9998779 25.999963 1.9998779 L 6.0001506 1.9998779 z M 9.0371745 6.5019287 L 11.037569 6.5019287 C 12.142139 6.5019287 13.008847 7.5050346 13.679785 8.3565959 C 13.826927 8.5433493 13.995838 8.7122726 14.182597 8.8594076 C 15.034138 9.5302804 17.040887 9.5303458 17.892448 8.8594076 C 18.079201 8.712266 18.247608 8.5433547 18.394743 8.3565959 C 19.065616 7.5050548 19.932389 6.5019287 21.036959 6.5019287 L 23.037354 6.5019287 A 5.9570698 5.9570698 0 0 1 26.373067 7.3923136 A 2.2656429 2.2656429 0 0 1 27.142529 10.290328 L 25.93175 12.712919 A 1.6034942 1.6034942 0 0 1 23.701396 13.611056 A 0.79419502 0.79419502 0 0 0 22.487 14.450798 L 24.587646 23.552568 A 1.5910395 1.5910395 0 0 1 23.037354 25.501803 L 9.0371745 25.501803 A 1.5910394 1.5910394 0 0 1 7.4868815 23.552568 L 9.5875285 14.450798 A 0.74253575 0.74253575 0 0 0 8.7012777 13.392464 A 1.7656256 1.7656256 0 0 1 6.1427775 12.712919 L 4.9314819 10.290328 A 2.0515285 2.0515285 0 0 1 5.3733154 7.6109049 A 6.6064977 6.6064977 0 0 1 9.0371745 6.5019287 z " />
</svg>
